<svg width="18" height="16" viewBox="0 0 18 16" fill="none" xmlns="http://www.w3.org/2000/svg">
<path d="M15.2477 1.99485C14.0825 1.43041 12.8367 1.0202 11.5342 0.786621C11.3742 1.08606 11.1873 1.48881 11.0585 1.8092C9.67387 1.59361 8.30201 1.59361 6.94287 1.8092C6.81404 1.48881 6.62292 1.08606 6.46152 0.786621C5.15761 1.0202 3.91032 1.43192 2.74514 1.99784C0.394982 5.67487 -0.242108 9.26057 0.0764375 12.7954C1.63519 14.0006 3.14581 14.7327 4.63093 15.2118C4.99762 14.6893 5.32465 14.1338 5.60638 13.5484C5.06981 13.3373 4.5559 13.0768 4.07031 12.7744C4.19913 12.6756 4.32514 12.5723 4.44689 12.466C7.40865 13.9003 10.6267 13.9003 13.5531 12.466C13.6762 12.5723 13.8022 12.6756 13.9296 12.7744C13.4426 13.0783 12.9273 13.3388 12.3907 13.5499C12.6725 14.1338 12.9981 14.6908 13.3662 15.2133C14.8527 14.7342 16.3647 14.0021 17.9235 12.7954C18.2973 8.69764 17.285 5.14487 15.2477 1.99485ZM6.00988 10.6215C5.12079 10.6215 4.39166 9.76211 4.39166 8.7156C4.39166 7.66908 5.10522 6.80822 6.00988 6.80822C6.91457 6.80822 7.64367 7.66757 7.6281 8.7156C7.62951 9.76211 6.91457 10.6215 6.00988 10.6215ZM11.9901 10.6215C11.101 10.6215 10.3718 9.76211 10.3718 8.7156C10.3718 7.66908 11.0854 6.80822 11.9901 6.80822C12.8947 6.80822 13.6238 7.66757 13.6083 8.7156C13.6083 9.76211 12.8947 10.6215 11.9901 10.6215Z" fill="white"/>
</svg>
