<svg width="24" height="24" viewBox="0 0 24 24" fill="none" xmlns="http://www.w3.org/2000/svg">
<g clip-path="url(#clip0_2597_4895)">
<path d="M12.0023 7.95683C9.73091 7.95683 7.89877 9.76035 7.89877 11.9963C7.89877 14.2322 9.73091 16.0357 12.0023 16.0357C14.2738 16.0357 16.1059 14.2322 16.1059 11.9963C16.1059 9.76035 14.2738 7.95683 12.0023 7.95683ZM12.0023 14.6225C10.5345 14.6225 9.33448 13.4447 9.33448 11.9963C9.33448 10.5478 10.5309 9.37011 12.0023 9.37011C13.4738 9.37011 14.6702 10.5478 14.6702 11.9963C14.6702 13.4447 13.4702 14.6225 12.0023 14.6225ZM17.2309 7.7916C17.2309 8.31543 16.8023 8.73379 16.2738 8.73379C15.7416 8.73379 15.3166 8.31191 15.3166 7.7916C15.3166 7.27129 15.7452 6.84941 16.2738 6.84941C16.8023 6.84941 17.2309 7.27129 17.2309 7.7916ZM19.9488 8.74785C19.888 7.48574 19.5952 6.36777 18.6559 5.44668C17.7202 4.52559 16.5845 4.2373 15.3023 4.17402C13.9809 4.1002 10.0202 4.1002 8.69877 4.17402C7.4202 4.23379 6.28449 4.52207 5.3452 5.44316C4.40591 6.36426 4.11663 7.48222 4.05234 8.74433C3.97734 10.0451 3.97734 13.9439 4.05234 15.2447C4.11306 16.5068 4.40591 17.6248 5.3452 18.5459C6.28449 19.467 7.41663 19.7553 8.69877 19.8185C10.0202 19.8924 13.9809 19.8924 15.3023 19.8185C16.5845 19.7588 17.7202 19.4705 18.6559 18.5459C19.5916 17.6248 19.8845 16.5068 19.9488 15.2447C20.0238 13.9439 20.0238 10.0486 19.9488 8.74785ZM18.2416 16.6404C17.963 17.3295 17.4238 17.8603 16.7202 18.1381C15.6666 18.5494 13.1666 18.4545 12.0023 18.4545C10.8381 18.4545 8.33448 18.5459 7.28448 18.1381C6.58448 17.8639 6.0452 17.333 5.76306 16.6404C5.3452 15.6033 5.44163 13.1424 5.44163 11.9963C5.44163 10.8502 5.34877 8.38574 5.76306 7.35215C6.04163 6.66308 6.58091 6.13223 7.28448 5.85449C8.33806 5.44316 10.8381 5.53809 12.0023 5.53809C13.1666 5.53809 15.6702 5.44668 16.7202 5.85449C17.4202 6.12871 17.9595 6.65957 18.2416 7.35215C18.6595 8.38926 18.563 10.8502 18.563 11.9963C18.563 13.1424 18.6595 15.6068 18.2416 16.6404Z" fill="white"/>
</g>
<defs>
<clipPath id="clip0_2597_4895">
<rect width="16" height="18" fill="white" transform="translate(4 3)"/>
</clipPath>
</defs>
</svg>
